<svg width="60" height="61" viewBox="0 0 60 61" fill="none" xmlns="http://www.w3.org/2000/svg">
<path d="M29.8098 0L34.4634 6.53146L41.2098 2.3061L43.0537 10.1468L50.8829 8.88219L49.6244 16.8271L57.3366 18.7017L53.1951 25.5754L59.6049 30.3066L53.1951 35.0378L57.3366 41.8966L49.6244 43.7712L50.8829 51.731L43.0537 50.4515L41.2098 58.2922L34.4634 54.0817L29.8098 60.5983L25.1561 54.0817L18.3951 58.2922L16.5512 50.4515L8.73659 51.731L9.98049 43.7712L2.26829 41.8966L6.42439 35.0378L0 30.3066L6.42439 25.5754L2.26829 18.7017L9.98049 16.8271L8.73659 8.88219L16.5512 10.1468L18.3951 2.3061L25.1561 6.53146L29.8098 0Z" fill="#30BE82"/>
<path d="M29.8098 1.37671L33.8128 6.99503L34.2496 7.60803L34.8875 7.2085L40.6877 3.57572L42.276 10.3297L42.4464 11.0541L43.181 10.9355L49.9213 9.84675L48.8354 16.7021L48.7201 17.4294L49.4357 17.6033L56.091 19.2211L52.5109 25.1631L52.1355 25.7861L52.7207 26.2181L58.2597 30.3066L52.7207 34.3951L52.1349 34.8275L52.5113 35.4507L56.0899 41.3775L49.4357 42.995L48.7204 43.1688L48.8353 43.896L49.9213 50.7643L43.1825 49.663L42.4467 49.5428L42.276 50.2686L40.6872 57.0244L34.8864 53.404L34.2496 53.0065L33.8133 53.6174L29.8098 59.2237L25.8062 53.6174L25.3704 53.0071L24.7338 53.4036L18.9179 57.0255L17.3289 50.2686L17.1581 49.5426L16.4221 49.6631L9.69621 50.7643L10.7698 43.8946L10.8832 43.1685L10.1692 42.995L3.51668 41.3779L7.10761 35.4518L7.48594 34.8274L6.89811 34.3945L1.34718 30.3066L6.89811 26.2186L7.48538 25.7861L7.10801 25.162L3.51561 19.2206L10.1692 17.6033L10.8834 17.4297L10.7697 16.7035L9.69621 9.84675L16.4236 10.9354L17.1585 11.0544L17.3289 10.3297L18.9175 3.5746L24.7327 7.20891L25.3704 7.60743L25.8067 6.99503L29.8098 1.37671Z" stroke="white" stroke-opacity="0.5" stroke-width="1.59774"/>
<g filter="url(#filter0_d_0_12815)">
<path d="M19.3856 42.3463C19.8479 42.1972 20.3698 41.9884 20.9514 41.72C21.5479 41.4515 22.1444 41.0936 22.7409 40.6463C23.3373 40.1989 23.8742 39.6397 24.3514 38.9687C24.8435 38.2827 25.2088 37.4551 25.4474 36.4858C25.0746 36.7989 24.6422 37.045 24.1501 37.2239C23.6729 37.388 23.2479 37.47 22.8751 37.47C22.1145 37.47 21.4733 37.3283 20.9514 37.045C20.4444 36.7616 20.0343 36.4037 19.7211 35.9713C19.4229 35.5239 19.2067 35.0616 19.0724 34.5845C18.9531 34.0923 18.8935 33.6524 18.8935 33.2647C18.8935 32.4445 19.0874 31.6915 19.4751 31.0055C19.8777 30.3195 20.4145 29.7678 21.0856 29.3503C21.7566 28.9178 22.5023 28.7016 23.3224 28.7016C23.9786 28.7016 24.5676 28.8507 25.0895 29.1489C25.6264 29.4323 26.0812 29.8125 26.454 30.2897C26.8268 30.7669 27.1101 31.3038 27.304 31.9002C27.4979 32.4818 27.5948 33.0634 27.5948 33.645C27.5948 34.7634 27.4158 35.8222 27.0579 36.8213C26.715 37.8204 26.193 38.6928 25.4922 39.4384C24.9851 40.0051 24.3887 40.527 23.7027 41.0042C23.0167 41.4814 22.3159 41.8915 21.6001 42.2344C20.8992 42.5625 20.2431 42.8086 19.6317 42.9726C19.5273 42.9726 19.4602 42.8831 19.4303 42.7042C19.4005 42.5252 19.3856 42.4059 19.3856 42.3463ZM25.6264 35.5239C25.6562 35.2853 25.6786 35.0393 25.6935 34.7858C25.7084 34.5323 25.7158 34.2788 25.7158 34.0252C25.7158 33.5331 25.6637 33.0187 25.5593 32.4818C25.4549 31.945 25.2983 31.4454 25.0895 30.9831C24.8808 30.5209 24.6123 30.1481 24.2843 29.8647C23.9562 29.5665 23.5759 29.4174 23.1435 29.4174C22.4575 29.4174 21.8834 29.7454 21.4211 30.4016C20.9738 31.0577 20.7501 31.8779 20.7501 32.8621C20.7501 33.4735 20.8395 34.0551 21.0185 34.6068C21.1974 35.1437 21.4882 35.5761 21.8909 35.9042C22.2935 36.2323 22.8229 36.3963 23.479 36.3963C23.7922 36.3963 24.1351 36.3516 24.508 36.2621C24.8957 36.1577 25.2685 35.9116 25.6264 35.5239ZM31.2906 42.3463C31.7529 42.1972 32.2748 41.9884 32.8564 41.72C33.4529 41.4515 34.0494 41.0936 34.6459 40.6463C35.2424 40.1989 35.7792 39.6397 36.2564 38.9687C36.7485 38.2827 37.1139 37.4551 37.3525 36.4858C36.9797 36.7989 36.5472 37.045 36.0551 37.2239C35.5779 37.388 35.1529 37.47 34.7801 37.47C34.0196 37.47 33.3784 37.3283 32.8564 37.045C32.3494 36.7616 31.9393 36.4037 31.6262 35.9713C31.3279 35.5239 31.1117 35.0616 30.9775 34.5845C30.8582 34.0923 30.7985 33.6524 30.7985 33.2647C30.7985 32.4445 30.9924 31.6915 31.3801 31.0055C31.7827 30.3195 32.3196 29.7678 32.9906 29.3503C33.6617 28.9178 34.4073 28.7016 35.2275 28.7016C35.8836 28.7016 36.4726 28.8507 36.9946 29.1489C37.5314 29.4323 37.9862 29.8125 38.359 30.2897C38.7318 30.7669 39.0152 31.3038 39.209 31.9002C39.4029 32.4818 39.4998 33.0634 39.4998 33.645C39.4998 34.7634 39.3209 35.8222 38.963 36.8213C38.62 37.8204 38.0981 38.6928 37.3972 39.4384C36.8902 40.0051 36.2937 40.527 35.6077 41.0042C34.9218 41.4814 34.2209 41.8915 33.5051 42.2344C32.8042 42.5625 32.1481 42.8086 31.5367 42.9726C31.4323 42.9726 31.3652 42.8831 31.3354 42.7042C31.3055 42.5252 31.2906 42.4059 31.2906 42.3463ZM37.5314 35.5239C37.5612 35.2853 37.5836 35.0393 37.5985 34.7858C37.6134 34.5323 37.6209 34.2788 37.6209 34.0252C37.6209 33.5331 37.5687 33.0187 37.4643 32.4818C37.3599 31.945 37.2033 31.4454 36.9946 30.9831C36.7858 30.5209 36.5174 30.1481 36.1893 29.8647C35.8612 29.5665 35.481 29.4174 35.0485 29.4174C34.3626 29.4174 33.7884 29.7454 33.3262 30.4016C32.8788 31.0577 32.6551 31.8779 32.6551 32.8621C32.6551 33.4735 32.7446 34.0551 32.9235 34.6068C33.1025 35.1437 33.3933 35.5761 33.7959 35.9042C34.1985 36.2323 34.7279 36.3963 35.384 36.3963C35.6972 36.3963 36.0402 36.3516 36.413 36.2621C36.8007 36.1577 37.1735 35.9116 37.5314 35.5239Z" fill="#30BE82"/>
</g>
<defs>
<filter id="filter0_d_0_12815" x="17.4545" y="28.7017" width="23.4845" height="17.149" filterUnits="userSpaceOnUse" color-interpolation-filters="sRGB">
<feFlood flood-opacity="0" result="BackgroundImageFix"/>
<feColorMatrix in="SourceAlpha" type="matrix" values="0 0 0 0 0 0 0 0 0 0 0 0 0 0 0 0 0 0 127 0" result="hardAlpha"/>
<feOffset dy="1.43902"/>
<feGaussianBlur stdDeviation="0.719512"/>
<feColorMatrix type="matrix" values="0 0 0 0 0 0 0 0 0 0 0 0 0 0 0 0 0 0 0.02 0"/>
<feBlend mode="normal" in2="BackgroundImageFix" result="effect1_dropShadow_0_12815"/>
<feBlend mode="normal" in="SourceGraphic" in2="effect1_dropShadow_0_12815" result="shape"/>
</filter>
</defs>
</svg>
